<svg width="686" height="822" viewBox="0 0 686 822" fill="none" xmlns="http://www.w3.org/2000/svg">
<path d="M0 0H656C672.569 0 686 13.4315 686 30V792C686 808.569 672.569 822 656 822H0V0Z" fill="url(#paint0_linear_264_5016)"/>
<circle cx="343" cy="455" r="228" fill="white"/>
<path d="M328.557 673.326L283.212 689.615M328.557 673.326L328.557 314M328.557 673.326L380.606 680.902M328.557 673.326L521.768 609.189M521.768 357.109L475.897 346.874M521.768 357.109L521.768 424.137M521.768 357.109L167.581 464.617M328.557 314L277.035 327.497M328.557 314L380.606 325.613M237.867 705.904L176.355 728L174.122 660.971M237.867 705.904L225.512 340.995M237.867 705.904L283.212 689.615M225.512 340.995L164 357.109L165.791 410.863M225.512 340.995L277.035 327.497M277.035 327.497L283.212 689.615M380.606 325.613L380.606 680.902M380.606 325.613L430.026 336.639M380.606 680.902L430.026 688.096M430.026 688.096L430.026 336.639M430.026 688.096L475.897 694.774M430.026 688.096L521.768 655.32M430.026 336.639L475.897 346.874M430.026 336.639L165.791 410.863M475.897 346.874L475.897 694.774M475.897 694.774L521.768 701.451L521.768 655.32M174.122 660.971L521.768 546.629M174.122 660.971L172.248 604.72M521.768 546.629L521.768 483.806M521.768 546.629L521.768 609.189M172.248 604.72L521.768 483.806M172.248 604.72L169.954 535.851M521.768 483.806L521.768 424.137M169.954 535.851L521.768 424.137M169.954 535.851L167.581 464.617M167.581 464.617L165.791 410.863M521.768 609.189L521.768 655.32" stroke="url(#paint1_linear_264_5016)" stroke-width="2"/>
<path d="M165.119 435.384C164.031 435.416 163.183 435.128 162.575 434.52C161.967 433.912 161.663 433.128 161.663 432.168C161.663 431.432 161.887 430.792 162.335 430.248C162.751 429.672 163.375 429.368 164.207 429.336L165.599 429.24C166.879 429.144 167.839 428.776 168.479 428.136C169.119 427.496 169.439 426.52 169.439 425.208V404.52C169.439 403.304 169.759 402.376 170.399 401.736C171.039 401.064 171.951 400.728 173.135 400.728C174.351 400.728 175.279 401.064 175.919 401.736C176.559 402.376 176.879 403.304 176.879 404.52V425.112C176.879 427.224 176.495 429.016 175.727 430.488C174.991 431.928 173.871 433.048 172.367 433.848C170.863 434.648 169.007 435.128 166.799 435.288L165.119 435.384ZM194.354 435.528C191.826 435.528 189.618 435.032 187.73 434.04C185.874 433.048 184.434 431.624 183.41 429.768C182.386 427.912 181.874 425.72 181.874 423.192C181.874 421.304 182.162 419.608 182.738 418.104C183.314 416.6 184.146 415.32 185.234 414.264C186.354 413.176 187.682 412.36 189.218 411.816C190.754 411.24 192.466 410.952 194.354 410.952C196.882 410.952 199.074 411.448 200.93 412.44C202.818 413.432 204.274 414.84 205.298 416.664C206.354 418.488 206.882 420.664 206.882 423.192C206.882 425.112 206.578 426.824 205.97 428.328C205.394 429.832 204.562 431.128 203.474 432.216C202.386 433.304 201.058 434.136 199.49 434.712C197.954 435.256 196.242 435.528 194.354 435.528ZM194.354 430.104C195.41 430.104 196.322 429.848 197.09 429.336C197.858 428.824 198.466 428.072 198.914 427.08C199.362 426.056 199.586 424.76 199.586 423.192C199.586 420.856 199.106 419.144 198.146 418.056C197.186 416.936 195.922 416.376 194.354 416.376C193.33 416.376 192.418 416.616 191.618 417.096C190.85 417.576 190.242 418.328 189.794 419.352C189.378 420.344 189.17 421.624 189.17 423.192C189.17 425.528 189.65 427.272 190.61 428.424C191.57 429.544 192.818 430.104 194.354 430.104ZM214.94 435.384C213.756 435.384 212.844 435.048 212.204 434.376C211.596 433.672 211.292 432.696 211.292 431.448V415.032C211.292 413.752 211.596 412.776 212.204 412.104C212.844 411.4 213.756 411.048 214.94 411.048C216.092 411.048 216.972 411.4 217.58 412.104C218.22 412.776 218.54 413.752 218.54 415.032V431.448C218.54 432.696 218.236 433.672 217.628 434.376C217.02 435.048 216.124 435.384 214.94 435.384ZM214.94 407.112C213.596 407.112 212.556 406.808 211.82 406.2C211.116 405.56 210.764 404.664 210.764 403.512C210.764 402.328 211.116 401.432 211.82 400.824C212.556 400.184 213.596 399.864 214.94 399.864C216.284 399.864 217.308 400.184 218.012 400.824C218.716 401.432 219.068 402.328 219.068 403.512C219.068 404.664 218.716 405.56 218.012 406.2C217.308 406.808 216.284 407.112 214.94 407.112ZM227.784 435.432C226.6 435.432 225.688 435.112 225.048 434.472C224.44 433.832 224.136 432.92 224.136 431.736V414.696C224.136 413.512 224.44 412.616 225.048 412.008C225.688 411.368 226.568 411.048 227.688 411.048C228.84 411.048 229.72 411.368 230.328 412.008C230.936 412.616 231.24 413.512 231.24 414.696V417.432L230.712 415.848C231.448 414.28 232.536 413.08 233.976 412.248C235.448 411.384 237.112 410.952 238.968 410.952C240.856 410.952 242.408 411.32 243.624 412.056C244.84 412.76 245.752 413.848 246.36 415.32C246.968 416.76 247.272 418.6 247.272 420.84V431.736C247.272 432.92 246.952 433.832 246.312 434.472C245.704 435.112 244.808 435.432 243.624 435.432C242.472 435.432 241.576 435.112 240.936 434.472C240.328 433.832 240.024 432.92 240.024 431.736V421.176C240.024 419.544 239.72 418.376 239.112 417.672C238.536 416.936 237.64 416.568 236.424 416.568C234.888 416.568 233.656 417.048 232.728 418.008C231.832 418.968 231.384 420.248 231.384 421.848V431.736C231.384 434.2 230.184 435.432 227.784 435.432ZM277.417 435.528C274.889 435.528 272.681 435.032 270.793 434.04C268.937 433.048 267.497 431.624 266.473 429.768C265.449 427.912 264.937 425.72 264.937 423.192C264.937 421.304 265.225 419.608 265.801 418.104C266.377 416.6 267.209 415.32 268.297 414.264C269.417 413.176 270.745 412.36 272.281 411.816C273.817 411.24 275.529 410.952 277.417 410.952C279.945 410.952 282.137 411.448 283.993 412.44C285.881 413.432 287.337 414.84 288.361 416.664C289.417 418.488 289.945 420.664 289.945 423.192C289.945 425.112 289.641 426.824 289.033 428.328C288.457 429.832 287.625 431.128 286.537 432.216C285.449 433.304 284.121 434.136 282.553 434.712C281.017 435.256 279.305 435.528 277.417 435.528ZM277.417 430.104C278.473 430.104 279.385 429.848 280.153 429.336C280.921 428.824 281.529 428.072 281.977 427.08C282.425 426.056 282.649 424.76 282.649 423.192C282.649 420.856 282.169 419.144 281.209 418.056C280.249 416.936 278.985 416.376 277.417 416.376C276.393 416.376 275.481 416.616 274.681 417.096C273.913 417.576 273.305 418.328 272.857 419.352C272.441 420.344 272.233 421.624 272.233 423.192C272.233 425.528 272.713 427.272 273.673 428.424C274.633 429.544 275.881 430.104 277.417 430.104ZM303.042 435.528C301.058 435.528 299.41 435.16 298.098 434.424C296.786 433.688 295.81 432.584 295.17 431.112C294.562 429.608 294.258 427.752 294.258 425.544V414.696C294.258 413.48 294.562 412.568 295.17 411.96C295.81 411.352 296.706 411.048 297.858 411.048C299.01 411.048 299.906 411.352 300.546 411.96C301.186 412.568 301.506 413.48 301.506 414.696V425.736C301.506 427.144 301.794 428.2 302.37 428.904C302.946 429.576 303.858 429.912 305.106 429.912C306.482 429.912 307.602 429.432 308.466 428.472C309.362 427.48 309.81 426.184 309.81 424.584V414.696C309.81 413.48 310.114 412.568 310.722 411.96C311.362 411.352 312.258 411.048 313.41 411.048C314.594 411.048 315.49 411.352 316.098 411.96C316.738 412.568 317.058 413.48 317.058 414.696V431.736C317.058 434.2 315.89 435.432 313.554 435.432C312.402 435.432 311.522 435.112 310.914 434.472C310.306 433.832 310.002 432.92 310.002 431.736V428.52L310.722 430.392C310.018 432.024 309.01 433.288 307.698 434.184C306.386 435.08 304.834 435.528 303.042 435.528ZM326.411 435.432C325.195 435.432 324.267 435.112 323.627 434.472C322.987 433.832 322.667 432.92 322.667 431.736V414.696C322.667 413.512 322.971 412.616 323.579 412.008C324.219 411.368 325.099 411.048 326.219 411.048C327.371 411.048 328.251 411.368 328.859 412.008C329.467 412.616 329.771 413.512 329.771 414.696V417.192H329.291C329.675 415.272 330.523 413.784 331.835 412.728C333.147 411.672 334.843 411.08 336.923 410.952C337.723 410.888 338.331 411.096 338.747 411.576C339.195 412.024 339.435 412.776 339.467 413.832C339.531 414.824 339.323 415.608 338.843 416.184C338.395 416.76 337.627 417.112 336.539 417.24L335.435 417.336C333.611 417.496 332.251 418.024 331.355 418.92C330.491 419.816 330.059 421.112 330.059 422.808V431.736C330.059 432.92 329.739 433.832 329.099 434.472C328.491 435.112 327.595 435.432 326.411 435.432Z" fill="#555555"/>
<path d="M353.742 444.024C352.878 444.056 352.19 443.912 351.678 443.592C351.166 443.272 350.814 442.856 350.622 442.344C350.43 441.864 350.382 441.368 350.478 440.856C350.542 440.344 350.75 439.896 351.102 439.512C351.454 439.128 351.934 438.904 352.542 438.84C353.79 438.744 354.686 438.392 355.23 437.784C355.806 437.208 356.094 436.312 356.094 435.096V414.696C356.094 413.512 356.414 412.616 357.054 412.008C357.694 411.368 358.59 411.048 359.742 411.048C360.894 411.048 361.774 411.368 362.382 412.008C363.022 412.616 363.342 413.512 363.342 414.696V434.424C363.342 436.536 362.99 438.28 362.286 439.656C361.614 441.032 360.574 442.072 359.166 442.776C357.758 443.512 355.95 443.928 353.742 444.024ZM359.694 407.112C358.382 407.112 357.358 406.808 356.622 406.2C355.918 405.56 355.566 404.664 355.566 403.512C355.566 402.328 355.918 401.432 356.622 400.824C357.358 400.184 358.382 399.864 359.694 399.864C361.038 399.864 362.062 400.184 362.766 400.824C363.47 401.432 363.822 402.328 363.822 403.512C363.822 404.664 363.47 405.56 362.766 406.2C362.062 406.808 361.038 407.112 359.694 407.112ZM380.307 435.528C377.779 435.528 375.571 435.032 373.683 434.04C371.827 433.048 370.387 431.624 369.363 429.768C368.339 427.912 367.827 425.72 367.827 423.192C367.827 421.304 368.115 419.608 368.691 418.104C369.267 416.6 370.099 415.32 371.187 414.264C372.307 413.176 373.635 412.36 375.171 411.816C376.707 411.24 378.419 410.952 380.307 410.952C382.835 410.952 385.027 411.448 386.883 412.44C388.771 413.432 390.227 414.84 391.251 416.664C392.307 418.488 392.835 420.664 392.835 423.192C392.835 425.112 392.531 426.824 391.923 428.328C391.347 429.832 390.515 431.128 389.427 432.216C388.339 433.304 387.011 434.136 385.443 434.712C383.907 435.256 382.195 435.528 380.307 435.528ZM380.307 430.104C381.363 430.104 382.275 429.848 383.043 429.336C383.811 428.824 384.419 428.072 384.867 427.08C385.315 426.056 385.539 424.76 385.539 423.192C385.539 420.856 385.059 419.144 384.099 418.056C383.139 416.936 381.875 416.376 380.307 416.376C379.283 416.376 378.371 416.616 377.571 417.096C376.803 417.576 376.195 418.328 375.747 419.352C375.331 420.344 375.123 421.624 375.123 423.192C375.123 425.528 375.603 427.272 376.563 428.424C377.523 429.544 378.771 430.104 380.307 430.104ZM405.933 435.528C403.949 435.528 402.301 435.16 400.989 434.424C399.677 433.688 398.701 432.584 398.061 431.112C397.453 429.608 397.149 427.752 397.149 425.544V414.696C397.149 413.48 397.453 412.568 398.061 411.96C398.701 411.352 399.597 411.048 400.749 411.048C401.901 411.048 402.797 411.352 403.437 411.96C404.077 412.568 404.397 413.48 404.397 414.696V425.736C404.397 427.144 404.685 428.2 405.261 428.904C405.837 429.576 406.749 429.912 407.997 429.912C409.373 429.912 410.493 429.432 411.357 428.472C412.253 427.48 412.701 426.184 412.701 424.584V414.696C412.701 413.48 413.005 412.568 413.613 411.96C414.253 411.352 415.149 411.048 416.301 411.048C417.485 411.048 418.381 411.352 418.989 411.96C419.629 412.568 419.949 413.48 419.949 414.696V431.736C419.949 434.2 418.781 435.432 416.445 435.432C415.293 435.432 414.413 435.112 413.805 434.472C413.197 433.832 412.893 432.92 412.893 431.736V428.52L413.613 430.392C412.909 432.024 411.901 433.288 410.589 434.184C409.277 435.08 407.725 435.528 405.933 435.528ZM429.301 435.432C428.085 435.432 427.157 435.112 426.517 434.472C425.877 433.832 425.557 432.92 425.557 431.736V414.696C425.557 413.512 425.861 412.616 426.469 412.008C427.109 411.368 427.989 411.048 429.109 411.048C430.261 411.048 431.141 411.368 431.749 412.008C432.357 412.616 432.661 413.512 432.661 414.696V417.192H432.181C432.565 415.272 433.413 413.784 434.725 412.728C436.037 411.672 437.733 411.08 439.813 410.952C440.613 410.888 441.221 411.096 441.637 411.576C442.085 412.024 442.325 412.776 442.357 413.832C442.421 414.824 442.213 415.608 441.733 416.184C441.285 416.76 440.517 417.112 439.429 417.24L438.325 417.336C436.501 417.496 435.141 418.024 434.245 418.92C433.381 419.816 432.949 421.112 432.949 422.808V431.736C432.949 432.92 432.629 433.832 431.989 434.472C431.381 435.112 430.485 435.432 429.301 435.432ZM448.987 435.432C447.803 435.432 446.891 435.112 446.251 434.472C445.643 433.832 445.339 432.92 445.339 431.736V414.696C445.339 413.512 445.643 412.616 446.251 412.008C446.891 411.368 447.771 411.048 448.891 411.048C450.043 411.048 450.923 411.368 451.531 412.008C452.139 412.616 452.443 413.512 452.443 414.696V417.432L451.915 415.848C452.651 414.28 453.739 413.08 455.179 412.248C456.651 411.384 458.315 410.952 460.171 410.952C462.059 410.952 463.611 411.32 464.827 412.056C466.043 412.76 466.955 413.848 467.563 415.32C468.171 416.76 468.475 418.6 468.475 420.84V431.736C468.475 432.92 468.155 433.832 467.515 434.472C466.907 435.112 466.011 435.432 464.827 435.432C463.675 435.432 462.779 435.112 462.139 434.472C461.531 433.832 461.227 432.92 461.227 431.736V421.176C461.227 419.544 460.923 418.376 460.315 417.672C459.739 416.936 458.843 416.568 457.627 416.568C456.091 416.568 454.859 417.048 453.931 418.008C453.035 418.968 452.587 420.248 452.587 421.848V431.736C452.587 434.2 451.387 435.432 448.987 435.432ZM486.126 435.528C483.342 435.528 480.942 435.032 478.926 434.04C476.942 433.016 475.406 431.592 474.318 429.768C473.262 427.912 472.734 425.736 472.734 423.24C472.734 420.808 473.246 418.68 474.27 416.856C475.294 415 476.718 413.56 478.542 412.536C480.398 411.48 482.494 410.952 484.83 410.952C486.526 410.952 488.062 411.24 489.438 411.816C490.814 412.36 491.998 413.16 492.99 414.216C493.982 415.24 494.734 416.504 495.246 418.008C495.758 419.48 496.014 421.128 496.014 422.952C496.014 423.56 495.822 424.024 495.438 424.344C495.054 424.632 494.494 424.776 493.758 424.776H478.686V421.032H490.782L490.014 421.704C490.014 420.392 489.822 419.304 489.438 418.44C489.054 417.544 488.494 416.872 487.758 416.424C487.054 415.976 486.174 415.752 485.118 415.752C483.934 415.752 482.926 416.024 482.094 416.568C481.262 417.112 480.622 417.896 480.174 418.92C479.726 419.944 479.502 421.176 479.502 422.616V423C479.502 425.432 480.062 427.224 481.182 428.376C482.334 429.528 484.03 430.104 486.27 430.104C487.038 430.104 487.918 430.008 488.91 429.816C489.902 429.624 490.83 429.32 491.694 428.904C492.43 428.552 493.086 428.44 493.662 428.568C494.238 428.664 494.686 428.92 495.006 429.336C495.326 429.752 495.502 430.232 495.534 430.776C495.598 431.32 495.486 431.864 495.198 432.408C494.91 432.92 494.43 433.352 493.758 433.704C492.67 434.312 491.438 434.76 490.062 435.048C488.718 435.368 487.406 435.528 486.126 435.528ZM506.239 444.072C505.407 444.072 504.719 443.848 504.175 443.4C503.631 442.952 503.311 442.36 503.215 441.624C503.119 440.92 503.247 440.168 503.599 439.368L506.815 432.264V435.24L498.319 415.752C497.999 414.92 497.887 414.152 497.983 413.448C498.111 412.712 498.463 412.136 499.039 411.72C499.647 411.272 500.479 411.048 501.535 411.048C502.399 411.048 503.087 411.256 503.599 411.672C504.143 412.056 504.639 412.808 505.087 413.928L510.751 428.328H509.215L515.071 413.88C515.519 412.792 516.015 412.056 516.559 411.672C517.135 411.256 517.903 411.048 518.863 411.048C519.695 411.048 520.351 411.272 520.831 411.72C521.343 412.136 521.647 412.696 521.743 413.4C521.871 414.104 521.743 414.872 521.359 415.704L510.079 441.288C509.599 442.376 509.055 443.112 508.447 443.496C507.871 443.88 507.135 444.072 506.239 444.072Z" fill="#F8B7B8"/>
<defs>
<linearGradient id="paint0_linear_264_5016" x1="343" y1="0" x2="343" y2="822" gradientUnits="userSpaceOnUse">
<stop stop-color="#CCFDF3"/>
<stop offset="1" stop-color="#FFDBD4"/>
</linearGradient>
<linearGradient id="paint1_linear_264_5016" x1="504.246" y1="381.234" x2="375.89" y2="545.856" gradientUnits="userSpaceOnUse">
<stop stop-color="#CFDEEC"/>
<stop offset="1" stop-color="#B0C2D5" stop-opacity="0"/>
</linearGradient>
</defs>
</svg>
