<svg width="1920" height="606" viewBox="0 0 1920 606" fill="none" xmlns="http://www.w3.org/2000/svg">
<rect width="1920" height="605.488" fill="url(#paint0_linear_203_4992)"/>
<mask id="mask0_203_4992" style="mask-type:alpha" maskUnits="userSpaceOnUse" x="0" y="0" width="1920" height="606">
<rect width="1920" height="605.216" fill="#D9D9D9"/>
</mask>
<g mask="url(#mask0_203_4992)">
<g filter="url(#filter0_f_203_4992)">
<circle cx="1682.83" cy="282.786" r="154" fill="#CCFDF3"/>
</g>
<g filter="url(#filter1_f_203_4992)">
<circle cx="63" cy="322" r="154" fill="#F8B7B8"/>
</g>
<g filter="url(#filter2_f_203_4992)">
<circle cx="757.685" cy="542.632" r="154" fill="#FFDBD4"/>
</g>
<g filter="url(#filter3_f_203_4992)">
<circle cx="1188.92" cy="552.613" r="224.617" fill="#FFC4BB"/>
</g>
<g filter="url(#filter4_f_203_4992)">
<circle cx="972.387" cy="428.827" r="105.315" fill="#CFDDEC"/>
</g>
<g filter="url(#filter5_f_203_4992)">
<circle cx="972.387" cy="428.827" r="105.315" fill="#CFDDEC"/>
</g>
<circle cx="967.851" cy="511.969" r="332.851" fill="#F4F6FB"/>
<path d="M956.147 658.314L904.745 676.778M956.147 658.314L956.147 250.992M956.147 658.314L1015.15 666.903M956.147 658.314L1175.16 585.61M1175.16 299.859L1123.17 288.257M1175.16 299.859L1175.16 375.841M1175.16 299.859L773.669 421.728M956.147 250.992L897.742 266.292M956.147 250.992L1015.15 264.156M853.343 695.243L783.615 720.291L781.084 644.309M853.343 695.243L839.337 281.592M853.343 695.243L904.745 676.778M839.337 281.592L769.609 299.859L771.639 360.793M839.337 281.592L897.742 266.292M897.742 266.292L904.745 676.778M1015.15 264.156L1015.15 666.903M1015.15 264.156L1071.17 276.655M1015.15 666.903L1071.17 675.058M1071.17 675.058L1071.17 276.655M1071.17 675.058L1123.17 682.627M1071.17 675.058L1175.16 637.903M1071.17 276.655L1123.17 288.257M1071.17 276.655L771.639 360.793M1123.17 288.257L1123.17 682.627M1123.17 682.627L1175.16 690.196L1175.16 637.903M781.084 644.309L1175.16 514.693M781.084 644.309L778.959 580.544M1175.16 514.693L1175.16 443.479M1175.16 514.693L1175.16 585.61M778.959 580.544L1175.16 443.479M778.959 580.544L776.359 502.477M1175.16 443.479L1175.16 375.841M776.359 502.477L1175.16 375.841M776.359 502.477L773.669 421.728M773.669 421.728L771.639 360.793M1175.16 585.61L1175.16 637.903" stroke="url(#paint1_linear_203_4992)" stroke-width="2"/>
</g>
<path d="M786.248 412.63C784.475 412.63 783.122 412.14 782.188 411.16C781.255 410.18 780.788 408.803 780.788 407.03V367.62C780.788 365.847 781.255 364.47 782.188 363.49C783.122 362.51 784.475 362.02 786.248 362.02C787.975 362.02 789.305 362.51 790.238 363.49C791.172 364.47 791.638 365.847 791.638 367.62V382.46H814.598V367.62C814.598 365.847 815.065 364.47 815.998 363.49C816.932 362.51 818.262 362.02 819.988 362.02C821.762 362.02 823.115 362.51 824.048 363.49C824.982 364.47 825.448 365.847 825.448 367.62V407.03C825.448 408.803 824.982 410.18 824.048 411.16C823.115 412.14 821.762 412.63 819.988 412.63C818.262 412.63 816.932 412.14 815.998 411.16C815.065 410.18 814.598 408.803 814.598 407.03V391.49H791.638V407.03C791.638 408.803 791.172 410.18 790.238 411.16C789.352 412.14 788.022 412.63 786.248 412.63ZM851.017 412.77C847.331 412.77 844.111 412.047 841.358 410.6C838.651 409.153 836.551 407.077 835.057 404.37C833.564 401.663 832.818 398.467 832.818 394.78C832.818 392.027 833.238 389.553 834.078 387.36C834.918 385.167 836.131 383.3 837.718 381.76C839.351 380.173 841.288 378.983 843.528 378.19C845.768 377.35 848.264 376.93 851.017 376.93C854.704 376.93 857.901 377.653 860.608 379.1C863.361 380.547 865.484 382.6 866.978 385.26C868.518 387.92 869.288 391.093 869.288 394.78C869.288 397.58 868.844 400.077 867.958 402.27C867.118 404.463 865.904 406.353 864.318 407.94C862.731 409.527 860.794 410.74 858.508 411.58C856.268 412.373 853.771 412.77 851.017 412.77ZM851.017 404.86C852.558 404.86 853.888 404.487 855.008 403.74C856.128 402.993 857.014 401.897 857.668 400.45C858.321 398.957 858.648 397.067 858.648 394.78C858.648 391.373 857.948 388.877 856.548 387.29C855.148 385.657 853.304 384.84 851.017 384.84C849.524 384.84 848.194 385.19 847.028 385.89C845.908 386.59 845.021 387.687 844.368 389.18C843.761 390.627 843.458 392.493 843.458 394.78C843.458 398.187 844.158 400.73 845.558 402.41C846.958 404.043 848.778 404.86 851.017 404.86ZM889.038 412.63C887.638 412.63 886.448 412.303 885.468 411.65C884.488 410.95 883.695 409.853 883.088 408.36L873.218 383.93C872.705 382.623 872.541 381.48 872.728 380.5C872.915 379.473 873.405 378.657 874.198 378.05C875.038 377.397 876.181 377.07 877.628 377.07C878.841 377.07 879.845 377.373 880.638 377.98C881.431 378.54 882.108 379.637 882.668 381.27L890.368 401.78H888.758L896.738 380.36C897.111 379.24 897.648 378.423 898.348 377.91C899.095 377.35 900.051 377.07 901.218 377.07C902.385 377.07 903.318 377.35 904.018 377.91C904.765 378.47 905.348 379.287 905.768 380.36L913.608 401.78H912.278L919.908 380.99C920.468 379.497 921.191 378.47 922.078 377.91C922.965 377.35 923.921 377.07 924.948 377.07C926.255 377.07 927.258 377.397 927.958 378.05C928.705 378.703 929.125 379.543 929.218 380.57C929.358 381.597 929.171 382.717 928.658 383.93L918.858 408.36C918.298 409.807 917.505 410.88 916.478 411.58C915.498 412.28 914.308 412.63 912.908 412.63C911.555 412.63 910.365 412.28 909.338 411.58C908.358 410.88 907.565 409.807 906.958 408.36L898.558 386.52H903.108L894.918 408.29C894.358 409.737 893.588 410.833 892.608 411.58C891.628 412.28 890.438 412.63 889.038 412.63ZM966.362 412.77C963.842 412.77 961.578 412.28 959.572 411.3C957.565 410.32 956.002 408.99 954.882 407.31C953.762 405.63 953.202 403.74 953.202 401.64C953.202 399.12 953.855 397.137 955.162 395.69C956.468 394.197 958.592 393.147 961.532 392.54C964.472 391.887 968.368 391.56 973.222 391.56H976.932V397.02H973.292C970.912 397.02 968.975 397.16 967.482 397.44C966.035 397.673 964.985 398.093 964.332 398.7C963.725 399.307 963.422 400.147 963.422 401.22C963.422 402.527 963.865 403.6 964.752 404.44C965.685 405.28 967.015 405.7 968.742 405.7C970.095 405.7 971.285 405.397 972.312 404.79C973.385 404.137 974.225 403.273 974.832 402.2C975.438 401.08 975.742 399.82 975.742 398.42V390.37C975.742 388.317 975.275 386.87 974.342 386.03C973.408 385.143 971.822 384.7 969.582 384.7C968.322 384.7 966.945 384.863 965.452 385.19C964.005 385.47 962.395 385.96 960.622 386.66C959.595 387.127 958.685 387.243 957.892 387.01C957.098 386.73 956.492 386.263 956.072 385.61C955.652 384.91 955.442 384.163 955.442 383.37C955.442 382.53 955.675 381.737 956.142 380.99C956.608 380.197 957.378 379.613 958.452 379.24C960.645 378.353 962.698 377.747 964.612 377.42C966.572 377.093 968.368 376.93 970.002 376.93C973.595 376.93 976.535 377.467 978.822 378.54C981.155 379.567 982.905 381.177 984.072 383.37C985.238 385.517 985.822 388.293 985.822 391.7V407.24C985.822 408.967 985.402 410.297 984.562 411.23C983.722 412.163 982.508 412.63 980.922 412.63C979.335 412.63 978.098 412.163 977.212 411.23C976.372 410.297 975.952 408.967 975.952 407.24V404.65L976.442 405.07C976.162 406.657 975.555 408.033 974.622 409.2C973.735 410.32 972.592 411.207 971.192 411.86C969.792 412.467 968.182 412.77 966.362 412.77ZM1014.92 412.77C1012.16 412.77 1009.71 412.093 1007.57 410.74C1005.47 409.34 1004.07 407.497 1003.37 405.21L1004.14 402.9V407.24C1004.14 408.967 1003.69 410.297 1002.81 411.23C1001.92 412.163 1000.64 412.63 998.956 412.63C997.276 412.63 995.97 412.163 995.036 411.23C994.15 410.297 993.706 408.967 993.706 407.24V367.41C993.706 365.637 994.15 364.307 995.036 363.42C995.97 362.487 997.3 362.02 999.026 362.02C1000.71 362.02 1001.99 362.487 1002.88 363.42C1003.81 364.307 1004.28 365.637 1004.28 367.41V384H1003.44C1004.18 381.9 1005.61 380.197 1007.71 378.89C1009.81 377.583 1012.21 376.93 1014.92 376.93C1017.95 376.93 1020.59 377.653 1022.83 379.1C1025.07 380.547 1026.82 382.6 1028.08 385.26C1029.34 387.92 1029.97 391.093 1029.97 394.78C1029.97 398.467 1029.34 401.663 1028.08 404.37C1026.82 407.077 1025.04 409.153 1022.76 410.6C1020.52 412.047 1017.9 412.77 1014.92 412.77ZM1011.77 404.86C1013.26 404.86 1014.57 404.487 1015.69 403.74C1016.85 402.993 1017.74 401.897 1018.35 400.45C1019 398.957 1019.33 397.067 1019.33 394.78C1019.33 391.373 1018.63 388.877 1017.23 387.29C1015.83 385.657 1014.01 384.84 1011.77 384.84C1010.27 384.84 1008.94 385.19 1007.78 385.89C1006.66 386.59 1005.77 387.687 1005.12 389.18C1004.46 390.627 1004.14 392.493 1004.14 394.78C1004.14 398.187 1004.84 400.73 1006.24 402.41C1007.64 404.043 1009.48 404.86 1011.77 404.86ZM1052.95 412.77C1049.26 412.77 1046.04 412.047 1043.29 410.6C1040.58 409.153 1038.48 407.077 1036.99 404.37C1035.5 401.663 1034.75 398.467 1034.75 394.78C1034.75 392.027 1035.17 389.553 1036.01 387.36C1036.85 385.167 1038.06 383.3 1039.65 381.76C1041.28 380.173 1043.22 378.983 1045.46 378.19C1047.7 377.35 1050.2 376.93 1052.95 376.93C1056.64 376.93 1059.83 377.653 1062.54 379.1C1065.29 380.547 1067.42 382.6 1068.91 385.26C1070.45 387.92 1071.22 391.093 1071.22 394.78C1071.22 397.58 1070.78 400.077 1069.89 402.27C1069.05 404.463 1067.84 406.353 1066.25 407.94C1064.66 409.527 1062.73 410.74 1060.44 411.58C1058.2 412.373 1055.7 412.77 1052.95 412.77ZM1052.95 404.86C1054.49 404.86 1055.82 404.487 1056.94 403.74C1058.06 402.993 1058.95 401.897 1059.6 400.45C1060.25 398.957 1060.58 397.067 1060.58 394.78C1060.58 391.373 1059.88 388.877 1058.48 387.29C1057.08 385.657 1055.24 384.84 1052.95 384.84C1051.46 384.84 1050.13 385.19 1048.96 385.89C1047.84 386.59 1046.95 387.687 1046.3 389.18C1045.69 390.627 1045.39 392.493 1045.39 394.78C1045.39 398.187 1046.09 400.73 1047.49 402.41C1048.89 404.043 1050.71 404.86 1052.95 404.86ZM1090.32 412.77C1087.43 412.77 1085.03 412.233 1083.11 411.16C1081.2 410.087 1079.78 408.477 1078.84 406.33C1077.96 404.137 1077.51 401.43 1077.51 398.21V382.39C1077.51 380.617 1077.96 379.287 1078.84 378.4C1079.78 377.513 1081.08 377.07 1082.76 377.07C1084.44 377.07 1085.75 377.513 1086.68 378.4C1087.62 379.287 1088.08 380.617 1088.08 382.39V398.49C1088.08 400.543 1088.5 402.083 1089.34 403.11C1090.18 404.09 1091.51 404.58 1093.33 404.58C1095.34 404.58 1096.97 403.88 1098.23 402.48C1099.54 401.033 1100.19 399.143 1100.19 396.81V382.39C1100.19 380.617 1100.64 379.287 1101.52 378.4C1102.46 377.513 1103.76 377.07 1105.44 377.07C1107.17 377.07 1108.48 377.513 1109.36 378.4C1110.3 379.287 1110.76 380.617 1110.76 382.39V407.24C1110.76 410.833 1109.06 412.63 1105.65 412.63C1103.97 412.63 1102.69 412.163 1101.8 411.23C1100.92 410.297 1100.47 408.967 1100.47 407.24V402.55L1101.52 405.28C1100.5 407.66 1099.03 409.503 1097.11 410.81C1095.2 412.117 1092.94 412.77 1090.32 412.77ZM1135.81 412.77C1132.59 412.77 1129.88 412.233 1127.69 411.16C1125.54 410.087 1123.93 408.523 1122.86 406.47C1121.83 404.417 1121.32 401.827 1121.32 398.7V385.54H1118.38C1117.07 385.54 1116.05 385.19 1115.3 384.49C1114.6 383.79 1114.25 382.833 1114.25 381.62C1114.25 380.313 1114.6 379.333 1115.3 378.68C1116.05 377.98 1117.07 377.63 1118.38 377.63H1121.32V372.31C1121.32 370.537 1121.79 369.207 1122.72 368.32C1123.65 367.387 1124.96 366.92 1126.64 366.92C1128.37 366.92 1129.67 367.387 1130.56 368.32C1131.45 369.207 1131.89 370.537 1131.89 372.31V377.63H1138.54C1139.85 377.63 1140.85 377.98 1141.55 378.68C1142.25 379.333 1142.6 380.313 1142.6 381.62C1142.6 382.833 1142.25 383.79 1141.55 384.49C1140.85 385.19 1139.85 385.54 1138.54 385.54H1131.89V398.28C1131.89 400.24 1132.33 401.71 1133.22 402.69C1134.15 403.67 1135.62 404.16 1137.63 404.16C1138.33 404.16 1138.98 404.09 1139.59 403.95C1140.2 403.81 1140.76 403.717 1141.27 403.67C1141.92 403.623 1142.46 403.833 1142.88 404.3C1143.3 404.72 1143.51 405.677 1143.51 407.17C1143.51 408.29 1143.32 409.27 1142.95 410.11C1142.58 410.95 1141.92 411.557 1140.99 411.93C1140.38 412.163 1139.54 412.35 1138.47 412.49C1137.44 412.677 1136.56 412.77 1135.81 412.77ZM1063 473.74C1061.97 473.74 1061.16 473.413 1060.55 472.76C1059.99 472.06 1059.71 471.127 1059.71 469.96C1059.71 468.607 1059.87 467.347 1060.2 466.18C1060.53 464.967 1061.04 463.753 1061.74 462.54C1062.49 461.327 1063.47 460.09 1064.68 458.83C1065.52 457.85 1066.2 457.01 1066.71 456.31C1067.27 455.563 1067.64 454.863 1067.83 454.21C1068.06 453.51 1068.18 452.81 1068.18 452.11C1068.18 450.803 1067.69 449.777 1066.71 449.03C1065.78 448.283 1064.42 447.91 1062.65 447.91C1060.97 447.91 1059.41 448.12 1057.96 448.54C1056.56 448.96 1055.18 449.567 1053.83 450.36C1052.62 451.013 1051.52 451.27 1050.54 451.13C1049.61 450.943 1048.86 450.523 1048.3 449.87C1047.74 449.17 1047.41 448.353 1047.32 447.42C1047.23 446.487 1047.44 445.577 1047.95 444.69C1048.46 443.757 1049.33 442.94 1050.54 442.24C1052.45 441.12 1054.58 440.28 1056.91 439.72C1059.24 439.16 1061.41 438.88 1063.42 438.88C1066.5 438.88 1069.21 439.393 1071.54 440.42C1073.87 441.447 1075.67 442.847 1076.93 444.62C1078.24 446.393 1078.89 448.47 1078.89 450.85C1078.89 452.297 1078.68 453.65 1078.26 454.91C1077.84 456.17 1077.16 457.43 1076.23 458.69C1075.3 459.903 1074.01 461.187 1072.38 462.54C1070.93 463.753 1069.79 464.85 1068.95 465.83C1068.11 466.763 1067.5 467.673 1067.13 468.56C1066.76 469.4 1066.5 470.31 1066.36 471.29C1066.22 471.99 1065.87 472.573 1065.31 473.04C1064.8 473.507 1064.03 473.74 1063 473.74ZM1062.86 489.35C1060.99 489.35 1059.5 488.79 1058.38 487.67C1057.31 486.55 1056.77 485.103 1056.77 483.33C1056.77 481.603 1057.31 480.203 1058.38 479.13C1059.5 478.01 1060.99 477.45 1062.86 477.45C1064.73 477.45 1066.17 478.01 1067.2 479.13C1068.27 480.203 1068.81 481.603 1068.81 483.33C1068.81 485.103 1068.27 486.55 1067.2 487.67C1066.17 488.79 1064.73 489.35 1062.86 489.35Z" fill="#292930"/>
<path d="M860.357 489.77C857.137 489.77 854.43 489.233 852.237 488.16C850.09 487.087 848.48 485.523 847.407 483.47C846.38 481.417 845.867 478.827 845.867 475.7V462.54H842.927C841.62 462.54 840.593 462.19 839.847 461.49C839.147 460.79 838.797 459.833 838.797 458.62C838.797 457.313 839.147 456.333 839.847 455.68C840.593 454.98 841.62 454.63 842.927 454.63H845.867V449.31C845.867 447.537 846.333 446.207 847.267 445.32C848.2 444.387 849.507 443.92 851.187 443.92C852.913 443.92 854.22 444.387 855.107 445.32C855.993 446.207 856.437 447.537 856.437 449.31V454.63H863.087C864.393 454.63 865.397 454.98 866.097 455.68C866.797 456.333 867.147 457.313 867.147 458.62C867.147 459.833 866.797 460.79 866.097 461.49C865.397 462.19 864.393 462.54 863.087 462.54H856.437V475.28C856.437 477.24 856.88 478.71 857.767 479.69C858.7 480.67 860.17 481.16 862.177 481.16C862.877 481.16 863.53 481.09 864.137 480.95C864.743 480.81 865.303 480.717 865.817 480.67C866.47 480.623 867.007 480.833 867.427 481.3C867.847 481.72 868.057 482.677 868.057 484.17C868.057 485.29 867.87 486.27 867.497 487.11C867.123 487.95 866.47 488.557 865.537 488.93C864.93 489.163 864.09 489.35 863.017 489.49C861.99 489.677 861.103 489.77 860.357 489.77ZM887.966 489.77C884.279 489.77 881.059 489.047 878.306 487.6C875.599 486.153 873.499 484.077 872.006 481.37C870.512 478.663 869.766 475.467 869.766 471.78C869.766 469.027 870.186 466.553 871.026 464.36C871.866 462.167 873.079 460.3 874.666 458.76C876.299 457.173 878.236 455.983 880.476 455.19C882.716 454.35 885.212 453.93 887.966 453.93C891.652 453.93 894.849 454.653 897.556 456.1C900.309 457.547 902.432 459.6 903.926 462.26C905.466 464.92 906.236 468.093 906.236 471.78C906.236 474.58 905.792 477.077 904.906 479.27C904.066 481.463 902.852 483.353 901.266 484.94C899.679 486.527 897.742 487.74 895.456 488.58C893.216 489.373 890.719 489.77 887.966 489.77ZM887.966 481.86C889.506 481.86 890.836 481.487 891.956 480.74C893.076 479.993 893.962 478.897 894.616 477.45C895.269 475.957 895.596 474.067 895.596 471.78C895.596 468.373 894.896 465.877 893.496 464.29C892.096 462.657 890.252 461.84 887.966 461.84C886.472 461.84 885.142 462.19 883.976 462.89C882.856 463.59 881.969 464.687 881.316 466.18C880.709 467.627 880.406 469.493 880.406 471.78C880.406 475.187 881.106 477.73 882.506 479.41C883.906 481.043 885.726 481.86 887.966 481.86ZM926.036 489.77C923.05 489.77 920.413 489.047 918.126 487.6C915.886 486.153 914.136 484.077 912.876 481.37C911.616 478.663 910.986 475.467 910.986 471.78C910.986 468.093 911.616 464.92 912.876 462.26C914.136 459.6 915.886 457.547 918.126 456.1C920.413 454.653 923.05 453.93 926.036 453.93C928.743 453.93 931.123 454.583 933.176 455.89C935.276 457.197 936.7 458.9 937.446 461H936.676V444.41C936.676 442.637 937.12 441.307 938.006 440.42C938.893 439.487 940.2 439.02 941.926 439.02C943.606 439.02 944.913 439.487 945.846 440.42C946.78 441.307 947.246 442.637 947.246 444.41V484.24C947.246 485.967 946.78 487.297 945.846 488.23C944.96 489.163 943.676 489.63 941.996 489.63C940.316 489.63 939.01 489.163 938.076 488.23C937.19 487.297 936.746 485.967 936.746 484.24V479.48L937.516 482.21C936.863 484.497 935.463 486.34 933.316 487.74C931.216 489.093 928.79 489.77 926.036 489.77ZM929.186 481.86C930.726 481.86 932.056 481.487 933.176 480.74C934.296 479.993 935.183 478.897 935.836 477.45C936.49 475.957 936.816 474.067 936.816 471.78C936.816 468.373 936.116 465.877 934.716 464.29C933.316 462.657 931.473 461.84 929.186 461.84C927.693 461.84 926.363 462.19 925.196 462.89C924.076 463.59 923.19 464.687 922.536 466.18C921.93 467.627 921.626 469.493 921.626 471.78C921.626 475.187 922.326 477.73 923.726 479.41C925.126 481.043 926.946 481.86 929.186 481.86ZM967.011 489.77C964.491 489.77 962.228 489.28 960.221 488.3C958.214 487.32 956.651 485.99 955.531 484.31C954.411 482.63 953.851 480.74 953.851 478.64C953.851 476.12 954.504 474.137 955.811 472.69C957.118 471.197 959.241 470.147 962.181 469.54C965.121 468.887 969.018 468.56 973.871 468.56H977.581V474.02H973.941C971.561 474.02 969.624 474.16 968.131 474.44C966.684 474.673 965.634 475.093 964.981 475.7C964.374 476.307 964.071 477.147 964.071 478.22C964.071 479.527 964.514 480.6 965.401 481.44C966.334 482.28 967.664 482.7 969.391 482.7C970.744 482.7 971.934 482.397 972.961 481.79C974.034 481.137 974.874 480.273 975.481 479.2C976.088 478.08 976.391 476.82 976.391 475.42V467.37C976.391 465.317 975.924 463.87 974.991 463.03C974.058 462.143 972.471 461.7 970.231 461.7C968.971 461.7 967.594 461.863 966.101 462.19C964.654 462.47 963.044 462.96 961.271 463.66C960.244 464.127 959.334 464.243 958.541 464.01C957.748 463.73 957.141 463.263 956.721 462.61C956.301 461.91 956.091 461.163 956.091 460.37C956.091 459.53 956.324 458.737 956.791 457.99C957.258 457.197 958.028 456.613 959.101 456.24C961.294 455.353 963.348 454.747 965.261 454.42C967.221 454.093 969.018 453.93 970.651 453.93C974.244 453.93 977.184 454.467 979.471 455.54C981.804 456.567 983.554 458.177 984.721 460.37C985.888 462.517 986.471 465.293 986.471 468.7V484.24C986.471 485.967 986.051 487.297 985.211 488.23C984.371 489.163 983.158 489.63 981.571 489.63C979.984 489.63 978.748 489.163 977.861 488.23C977.021 487.297 976.601 485.967 976.601 484.24V481.65L977.091 482.07C976.811 483.657 976.204 485.033 975.271 486.2C974.384 487.32 973.241 488.207 971.841 488.86C970.441 489.467 968.831 489.77 967.011 489.77ZM1003.39 502.23C1002.18 502.23 1001.18 501.903 1000.38 501.25C999.591 500.597 999.124 499.733 998.984 498.66C998.844 497.633 999.031 496.537 999.544 495.37L1004.23 485.01V489.35L991.844 460.93C991.377 459.717 991.214 458.597 991.354 457.57C991.541 456.497 992.054 455.657 992.894 455.05C993.781 454.397 994.994 454.07 996.534 454.07C997.794 454.07 998.797 454.373 999.544 454.98C1000.34 455.54 1001.06 456.637 1001.71 458.27L1009.97 479.27H1007.73L1016.27 458.2C1016.93 456.613 1017.65 455.54 1018.44 454.98C1019.28 454.373 1020.4 454.07 1021.8 454.07C1023.02 454.07 1023.97 454.397 1024.67 455.05C1025.42 455.657 1025.86 456.473 1026 457.5C1026.19 458.527 1026 459.647 1025.44 460.86L1008.99 498.17C1008.29 499.757 1007.5 500.83 1006.61 501.39C1005.77 501.95 1004.7 502.23 1003.39 502.23Z" fill="#F8B7B8"/>
<path d="M379.56 100C378.78 100 378.18 99.79 377.76 99.37C377.34 98.95 377.13 98.35 377.13 97.57V81.28C377.13 80.5 377.34 79.9 377.76 79.48C378.18 79.06 378.78 78.85 379.56 78.85H385.41C389.03 78.85 391.82 79.77 393.78 81.61C395.76 83.43 396.75 86.03 396.75 89.41C396.75 91.11 396.49 92.62 395.97 93.94C395.47 95.24 394.74 96.34 393.78 97.24C392.82 98.14 391.64 98.83 390.24 99.31C388.84 99.77 387.23 100 385.41 100H379.56ZM381.78 96.19H385.14C386.28 96.19 387.27 96.05 388.11 95.77C388.95 95.49 389.65 95.07 390.21 94.51C390.77 93.95 391.19 93.25 391.47 92.41C391.75 91.55 391.89 90.55 391.89 89.41C391.89 87.13 391.32 85.44 390.18 84.34C389.06 83.22 387.38 82.66 385.14 82.66H381.78V96.19ZM406.483 100.27C405.723 100.27 405.143 100.06 404.743 99.64C404.343 99.22 404.143 98.63 404.143 97.87V82.69H398.833C398.213 82.69 397.733 82.52 397.393 82.18C397.053 81.84 396.883 81.37 396.883 80.77C396.883 80.15 397.053 79.68 397.393 79.36C397.733 79.02 398.213 78.85 398.833 78.85H414.103C414.723 78.85 415.203 79.02 415.543 79.36C415.883 79.68 416.053 80.15 416.053 80.77C416.053 81.37 415.883 81.84 415.543 82.18C415.203 82.52 414.723 82.69 414.103 82.69H408.793V97.87C408.793 98.63 408.593 99.22 408.193 99.64C407.813 100.06 407.243 100.27 406.483 100.27ZM417.635 100.27C416.875 100.27 416.295 100.07 415.895 99.67C415.495 99.27 415.295 98.7 415.295 97.96V87.31C415.295 86.57 415.485 86.01 415.865 85.63C416.265 85.23 416.815 85.03 417.515 85.03C418.235 85.03 418.785 85.23 419.165 85.63C419.545 86.01 419.735 86.57 419.735 87.31V88.87H419.435C419.675 87.67 420.205 86.74 421.025 86.08C421.845 85.42 422.905 85.05 424.205 84.97C424.705 84.93 425.085 85.06 425.345 85.36C425.625 85.64 425.775 86.11 425.795 86.77C425.835 87.39 425.705 87.88 425.405 88.24C425.125 88.6 424.645 88.82 423.965 88.9L423.275 88.96C422.135 89.06 421.285 89.39 420.725 89.95C420.185 90.51 419.915 91.32 419.915 92.38V97.96C419.915 98.7 419.715 99.27 419.315 99.67C418.935 100.07 418.375 100.27 417.635 100.27ZM432.491 100.33C431.411 100.33 430.441 100.12 429.581 99.7C428.721 99.28 428.051 98.71 427.571 97.99C427.091 97.27 426.851 96.46 426.851 95.56C426.851 94.48 427.131 93.63 427.691 93.01C428.251 92.37 429.161 91.92 430.421 91.66C431.681 91.38 433.351 91.24 435.431 91.24H437.021V93.58H435.461C434.441 93.58 433.611 93.64 432.971 93.76C432.351 93.86 431.901 94.04 431.621 94.3C431.361 94.56 431.231 94.92 431.231 95.38C431.231 95.94 431.421 96.4 431.801 96.76C432.201 97.12 432.771 97.3 433.511 97.3C434.091 97.3 434.601 97.17 435.041 96.91C435.501 96.63 435.861 96.26 436.121 95.8C436.381 95.32 436.511 94.78 436.511 94.18V90.73C436.511 89.85 436.311 89.23 435.911 88.87C435.511 88.49 434.831 88.3 433.871 88.3C433.331 88.3 432.741 88.37 432.101 88.51C431.481 88.63 430.791 88.84 430.031 89.14C429.591 89.34 429.201 89.39 428.861 89.29C428.521 89.17 428.261 88.97 428.081 88.69C427.901 88.39 427.811 88.07 427.811 87.73C427.811 87.37 427.911 87.03 428.111 86.71C428.311 86.37 428.641 86.12 429.101 85.96C430.041 85.58 430.921 85.32 431.741 85.18C432.581 85.04 433.351 84.97 434.051 84.97C435.591 84.97 436.851 85.2 437.831 85.66C438.831 86.1 439.581 86.79 440.081 87.73C440.581 88.65 440.831 89.84 440.831 91.3V97.96C440.831 98.7 440.651 99.27 440.291 99.67C439.931 100.07 439.411 100.27 438.731 100.27C438.051 100.27 437.521 100.07 437.141 99.67C436.781 99.27 436.601 98.7 436.601 97.96V96.85L436.811 97.03C436.691 97.71 436.431 98.3 436.031 98.8C435.651 99.28 435.161 99.66 434.561 99.94C433.961 100.2 433.271 100.33 432.491 100.33ZM449.941 100.33C448.661 100.33 447.531 100.02 446.551 99.4C445.591 98.78 444.841 97.89 444.301 96.73C443.761 95.57 443.491 94.2 443.491 92.62C443.491 91.04 443.761 89.68 444.301 88.54C444.841 87.4 445.591 86.52 446.551 85.9C447.531 85.28 448.661 84.97 449.941 84.97C451.101 84.97 452.121 85.25 453.001 85.81C453.901 86.37 454.511 87.1 454.831 88H454.501V80.89C454.501 80.13 454.691 79.56 455.071 79.18C455.451 78.78 456.011 78.58 456.751 78.58C457.471 78.58 458.031 78.78 458.431 79.18C458.831 79.56 459.031 80.13 459.031 80.89V97.96C459.031 98.7 458.831 99.27 458.431 99.67C458.051 100.07 457.501 100.27 456.781 100.27C456.061 100.27 455.501 100.07 455.101 99.67C454.721 99.27 454.531 98.7 454.531 97.96V95.92L454.861 97.09C454.581 98.07 453.981 98.86 453.061 99.46C452.161 100.04 451.121 100.33 449.941 100.33ZM451.291 96.94C451.951 96.94 452.521 96.78 453.001 96.46C453.481 96.14 453.861 95.67 454.141 95.05C454.421 94.41 454.561 93.6 454.561 92.62C454.561 91.16 454.261 90.09 453.661 89.41C453.061 88.71 452.271 88.36 451.291 88.36C450.651 88.36 450.081 88.51 449.581 88.81C449.101 89.11 448.721 89.58 448.441 90.22C448.181 90.84 448.051 91.64 448.051 92.62C448.051 94.08 448.351 95.17 448.951 95.89C449.551 96.59 450.331 96.94 451.291 96.94ZM470.171 100.33C468.431 100.33 466.931 100.02 465.671 99.4C464.431 98.76 463.471 97.87 462.791 96.73C462.131 95.57 461.801 94.21 461.801 92.65C461.801 91.13 462.121 89.8 462.761 88.66C463.401 87.5 464.291 86.6 465.431 85.96C466.591 85.3 467.901 84.97 469.361 84.97C470.421 84.97 471.381 85.15 472.241 85.51C473.101 85.85 473.841 86.35 474.461 87.01C475.081 87.65 475.551 88.44 475.871 89.38C476.191 90.3 476.351 91.33 476.351 92.47C476.351 92.85 476.231 93.14 475.991 93.34C475.751 93.52 475.401 93.61 474.941 93.61H465.521V91.27H473.081L472.601 91.69C472.601 90.87 472.481 90.19 472.241 89.65C472.001 89.09 471.651 88.67 471.191 88.39C470.751 88.11 470.201 87.97 469.541 87.97C468.801 87.97 468.171 88.14 467.651 88.48C467.131 88.82 466.731 89.31 466.451 89.95C466.171 90.59 466.031 91.36 466.031 92.26V92.5C466.031 94.02 466.381 95.14 467.081 95.86C467.801 96.58 468.861 96.94 470.261 96.94C470.741 96.94 471.291 96.88 471.911 96.76C472.531 96.64 473.111 96.45 473.651 96.19C474.111 95.97 474.521 95.9 474.881 95.98C475.241 96.04 475.521 96.2 475.721 96.46C475.921 96.72 476.031 97.02 476.051 97.36C476.091 97.7 476.021 98.04 475.841 98.38C475.661 98.7 475.361 98.97 474.941 99.19C474.261 99.57 473.491 99.85 472.631 100.03C471.791 100.23 470.971 100.33 470.171 100.33ZM384.69 148.33C383.85 148.33 382.99 148.26 382.11 148.12C381.25 148 380.42 147.82 379.62 147.58C378.84 147.34 378.14 147.04 377.52 146.68C377.08 146.44 376.77 146.13 376.59 145.75C376.41 145.35 376.34 144.95 376.38 144.55C376.44 144.15 376.59 143.8 376.83 143.5C377.09 143.18 377.41 142.98 377.79 142.9C378.19 142.8 378.63 142.87 379.11 143.11C379.93 143.57 380.82 143.91 381.78 144.13C382.76 144.35 383.73 144.46 384.69 144.46C386.15 144.46 387.19 144.24 387.81 143.8C388.43 143.34 388.74 142.77 388.74 142.09C388.74 141.51 388.52 141.05 388.08 140.71C387.64 140.37 386.87 140.08 385.77 139.84L382.38 139.12C380.46 138.72 379.03 138.04 378.09 137.08C377.17 136.1 376.71 134.82 376.71 133.24C376.71 132.24 376.92 131.33 377.34 130.51C377.76 129.69 378.35 128.98 379.11 128.38C379.87 127.78 380.77 127.32 381.81 127C382.87 126.68 384.03 126.52 385.29 126.52C386.41 126.52 387.51 126.66 388.59 126.94C389.67 127.2 390.62 127.59 391.44 128.11C391.84 128.35 392.11 128.66 392.25 129.04C392.41 129.4 392.46 129.77 392.4 130.15C392.36 130.51 392.21 130.83 391.95 131.11C391.71 131.39 391.4 131.57 391.02 131.65C390.64 131.73 390.18 131.64 389.64 131.38C388.98 131.04 388.28 130.79 387.54 130.63C386.8 130.47 386.04 130.39 385.26 130.39C384.42 130.39 383.7 130.5 383.1 130.72C382.52 130.94 382.07 131.25 381.75 131.65C381.45 132.05 381.3 132.51 381.3 133.03C381.3 133.61 381.51 134.08 381.93 134.44C382.35 134.8 383.08 135.09 384.12 135.31L387.51 136.03C389.47 136.45 390.93 137.13 391.89 138.07C392.85 138.99 393.33 140.21 393.33 141.73C393.33 142.73 393.13 143.64 392.73 144.46C392.33 145.26 391.75 145.95 390.99 146.53C390.23 147.11 389.32 147.56 388.26 147.88C387.2 148.18 386.01 148.33 384.69 148.33ZM403.039 148.33C401.459 148.33 400.079 148.02 398.899 147.4C397.739 146.78 396.839 145.89 396.199 144.73C395.559 143.57 395.239 142.2 395.239 140.62C395.239 139.44 395.419 138.38 395.779 137.44C396.139 136.5 396.659 135.7 397.339 135.04C398.039 134.36 398.869 133.85 399.829 133.51C400.789 133.15 401.859 132.97 403.039 132.97C404.619 132.97 405.989 133.28 407.149 133.9C408.329 134.52 409.239 135.4 409.879 136.54C410.539 137.68 410.869 139.04 410.869 140.62C410.869 141.82 410.679 142.89 410.299 143.83C409.939 144.77 409.419 145.58 408.739 146.26C408.059 146.94 407.229 147.46 406.249 147.82C405.289 148.16 404.219 148.33 403.039 148.33ZM403.039 144.94C403.699 144.94 404.269 144.78 404.749 144.46C405.229 144.14 405.609 143.67 405.889 143.05C406.169 142.41 406.309 141.6 406.309 140.62C406.309 139.16 406.009 138.09 405.409 137.41C404.809 136.71 404.019 136.36 403.039 136.36C402.399 136.36 401.829 136.51 401.329 136.81C400.849 137.11 400.469 137.58 400.189 138.22C399.929 138.84 399.799 139.64 399.799 140.62C399.799 142.08 400.099 143.17 400.699 143.89C401.299 144.59 402.079 144.94 403.039 144.94ZM418.935 148.33C417.155 148.33 415.825 147.84 414.945 146.86C414.065 145.86 413.625 144.38 413.625 142.42V128.89C413.625 128.13 413.815 127.56 414.195 127.18C414.595 126.78 415.165 126.58 415.905 126.58C416.625 126.58 417.175 126.78 417.555 127.18C417.955 127.56 418.155 128.13 418.155 128.89V142.24C418.155 143.06 418.325 143.67 418.665 144.07C419.025 144.45 419.495 144.64 420.075 144.64C420.235 144.64 420.385 144.63 420.525 144.61C420.665 144.59 420.815 144.58 420.975 144.58C421.295 144.54 421.515 144.64 421.635 144.88C421.775 145.1 421.845 145.55 421.845 146.23C421.845 146.83 421.725 147.29 421.485 147.61C421.245 147.91 420.875 148.11 420.375 148.21C420.175 148.23 419.945 148.25 419.685 148.27C419.425 148.31 419.175 148.33 418.935 148.33ZM429.045 148.33C427.805 148.33 426.775 148.1 425.955 147.64C425.135 147.18 424.525 146.49 424.125 145.57C423.745 144.63 423.555 143.47 423.555 142.09V135.31C423.555 134.55 423.745 133.98 424.125 133.6C424.525 133.22 425.085 133.03 425.805 133.03C426.525 133.03 427.085 133.22 427.485 133.6C427.885 133.98 428.085 134.55 428.085 135.31V142.21C428.085 143.09 428.265 143.75 428.625 144.19C428.985 144.61 429.555 144.82 430.335 144.82C431.195 144.82 431.895 144.52 432.435 143.92C432.995 143.3 433.275 142.49 433.275 141.49V135.31C433.275 134.55 433.465 133.98 433.845 133.6C434.245 133.22 434.805 133.03 435.525 133.03C436.265 133.03 436.825 133.22 437.205 133.6C437.605 133.98 437.805 134.55 437.805 135.31V145.96C437.805 147.5 437.075 148.27 435.615 148.27C434.895 148.27 434.345 148.07 433.965 147.67C433.585 147.27 433.395 146.7 433.395 145.96V143.95L433.845 145.12C433.405 146.14 432.775 146.93 431.955 147.49C431.135 148.05 430.165 148.33 429.045 148.33ZM448.54 148.33C447.16 148.33 446 148.1 445.06 147.64C444.14 147.18 443.45 146.51 442.99 145.63C442.55 144.75 442.33 143.64 442.33 142.3V136.66H441.07C440.51 136.66 440.07 136.51 439.75 136.21C439.45 135.91 439.3 135.5 439.3 134.98C439.3 134.42 439.45 134 439.75 133.72C440.07 133.42 440.51 133.27 441.07 133.27H442.33V130.99C442.33 130.23 442.53 129.66 442.93 129.28C443.33 128.88 443.89 128.68 444.61 128.68C445.35 128.68 445.91 128.88 446.29 129.28C446.67 129.66 446.86 130.23 446.86 130.99V133.27H449.71C450.27 133.27 450.7 133.42 451 133.72C451.3 134 451.45 134.42 451.45 134.98C451.45 135.5 451.3 135.91 451 136.21C450.7 136.51 450.27 136.66 449.71 136.66H446.86V142.12C446.86 142.96 447.05 143.59 447.43 144.01C447.83 144.43 448.46 144.64 449.32 144.64C449.62 144.64 449.9 144.61 450.16 144.55C450.42 144.49 450.66 144.45 450.88 144.43C451.16 144.41 451.39 144.5 451.57 144.7C451.75 144.88 451.84 145.29 451.84 145.93C451.84 146.41 451.76 146.83 451.6 147.19C451.44 147.55 451.16 147.81 450.76 147.97C450.5 148.07 450.14 148.15 449.68 148.21C449.24 148.29 448.86 148.33 448.54 148.33ZM456.188 148.24C455.448 148.24 454.878 148.03 454.478 147.61C454.098 147.17 453.908 146.56 453.908 145.78V135.52C453.908 134.72 454.098 134.11 454.478 133.69C454.878 133.25 455.448 133.03 456.188 133.03C456.908 133.03 457.458 133.25 457.838 133.69C458.238 134.11 458.438 134.72 458.438 135.52V145.78C458.438 146.56 458.248 147.17 457.868 147.61C457.488 148.03 456.928 148.24 456.188 148.24ZM456.188 130.57C455.348 130.57 454.698 130.38 454.238 130C453.798 129.6 453.578 129.04 453.578 128.32C453.578 127.58 453.798 127.02 454.238 126.64C454.698 126.24 455.348 126.04 456.188 126.04C457.028 126.04 457.668 126.24 458.108 126.64C458.548 127.02 458.768 127.58 458.768 128.32C458.768 129.04 458.548 129.6 458.108 130C457.668 130.38 457.028 130.57 456.188 130.57ZM469.015 148.33C467.435 148.33 466.055 148.02 464.875 147.4C463.715 146.78 462.815 145.89 462.175 144.73C461.535 143.57 461.215 142.2 461.215 140.62C461.215 139.44 461.395 138.38 461.755 137.44C462.115 136.5 462.635 135.7 463.315 135.04C464.015 134.36 464.845 133.85 465.805 133.51C466.765 133.15 467.835 132.97 469.015 132.97C470.595 132.97 471.965 133.28 473.125 133.9C474.305 134.52 475.215 135.4 475.855 136.54C476.515 137.68 476.845 139.04 476.845 140.62C476.845 141.82 476.655 142.89 476.275 143.83C475.915 144.77 475.395 145.58 474.715 146.26C474.035 146.94 473.205 147.46 472.225 147.82C471.265 148.16 470.195 148.33 469.015 148.33ZM469.015 144.94C469.675 144.94 470.245 144.78 470.725 144.46C471.205 144.14 471.585 143.67 471.865 143.05C472.145 142.41 472.285 141.6 472.285 140.62C472.285 139.16 471.985 138.09 471.385 137.41C470.785 136.71 469.995 136.36 469.015 136.36C468.375 136.36 467.805 136.51 467.305 136.81C466.825 137.11 466.445 137.58 466.165 138.22C465.905 138.84 465.775 139.64 465.775 140.62C465.775 142.08 466.075 143.17 466.675 143.89C467.275 144.59 468.055 144.94 469.015 144.94ZM481.881 148.27C481.141 148.27 480.571 148.07 480.171 147.67C479.791 147.27 479.601 146.7 479.601 145.96V135.31C479.601 134.57 479.791 134.01 480.171 133.63C480.571 133.23 481.121 133.03 481.821 133.03C482.541 133.03 483.091 133.23 483.471 133.63C483.851 134.01 484.041 134.57 484.041 135.31V137.02L483.711 136.03C484.171 135.05 484.851 134.3 485.751 133.78C486.671 133.24 487.711 132.97 488.871 132.97C490.051 132.97 491.021 133.2 491.781 133.66C492.541 134.1 493.111 134.78 493.491 135.7C493.871 136.6 494.061 137.75 494.061 139.15V145.96C494.061 146.7 493.861 147.27 493.461 147.67C493.081 148.07 492.521 148.27 491.781 148.27C491.061 148.27 490.501 148.07 490.101 147.67C489.721 147.27 489.531 146.7 489.531 145.96V139.36C489.531 138.34 489.341 137.61 488.961 137.17C488.601 136.71 488.041 136.48 487.281 136.48C486.321 136.48 485.551 136.78 484.971 137.38C484.411 137.98 484.131 138.78 484.131 139.78V145.96C484.131 147.5 483.381 148.27 481.881 148.27ZM503.083 148.33C502.203 148.33 501.293 148.25 500.353 148.09C499.433 147.93 498.593 147.66 497.833 147.28C497.433 147.08 497.143 146.83 496.963 146.53C496.803 146.21 496.733 145.89 496.753 145.57C496.773 145.25 496.873 144.96 497.053 144.7C497.253 144.44 497.503 144.27 497.803 144.19C498.123 144.09 498.473 144.12 498.853 144.28C499.673 144.62 500.423 144.86 501.103 145C501.783 145.14 502.453 145.21 503.113 145.21C503.973 145.21 504.593 145.08 504.973 144.82C505.373 144.54 505.573 144.18 505.573 143.74C505.573 143.34 505.443 143.04 505.183 142.84C504.923 142.64 504.543 142.5 504.043 142.42L500.893 141.85C499.653 141.63 498.693 141.18 498.013 140.5C497.353 139.8 497.023 138.91 497.023 137.83C497.023 136.83 497.303 135.97 497.863 135.25C498.423 134.51 499.193 133.95 500.173 133.57C501.173 133.17 502.303 132.97 503.563 132.97C504.463 132.97 505.293 133.05 506.053 133.21C506.813 133.37 507.543 133.63 508.243 133.99C508.603 134.17 508.853 134.41 508.993 134.71C509.153 135.01 509.203 135.32 509.143 135.64C509.103 135.96 508.983 136.25 508.783 136.51C508.583 136.77 508.323 136.94 508.003 137.02C507.703 137.1 507.353 137.06 506.953 136.9C506.313 136.6 505.723 136.39 505.183 136.27C504.643 136.13 504.123 136.06 503.623 136.06C502.723 136.06 502.073 136.21 501.673 136.51C501.273 136.79 501.073 137.15 501.073 137.59C501.073 137.93 501.183 138.22 501.403 138.46C501.643 138.68 502.003 138.83 502.483 138.91L505.633 139.48C506.933 139.7 507.923 140.14 508.603 140.8C509.283 141.44 509.623 142.32 509.623 143.44C509.623 144.96 509.023 146.16 507.823 147.04C506.643 147.9 505.063 148.33 503.083 148.33Z" fill="#2C2D36"/>
<defs>
<filter id="filter0_f_203_4992" x="1202.83" y="-197.214" width="960" height="960" filterUnits="userSpaceOnUse" color-interpolation-filters="sRGB">
<feFlood flood-opacity="0" result="BackgroundImageFix"/>
<feBlend mode="normal" in="SourceGraphic" in2="BackgroundImageFix" result="shape"/>
<feGaussianBlur stdDeviation="163" result="effect1_foregroundBlur_203_4992"/>
</filter>
<filter id="filter1_f_203_4992" x="-417" y="-158" width="960" height="960" filterUnits="userSpaceOnUse" color-interpolation-filters="sRGB">
<feFlood flood-opacity="0" result="BackgroundImageFix"/>
<feBlend mode="normal" in="SourceGraphic" in2="BackgroundImageFix" result="shape"/>
<feGaussianBlur stdDeviation="163" result="effect1_foregroundBlur_203_4992"/>
</filter>
<filter id="filter2_f_203_4992" x="277.685" y="62.6323" width="960" height="960" filterUnits="userSpaceOnUse" color-interpolation-filters="sRGB">
<feFlood flood-opacity="0" result="BackgroundImageFix"/>
<feBlend mode="normal" in="SourceGraphic" in2="BackgroundImageFix" result="shape"/>
<feGaussianBlur stdDeviation="163" result="effect1_foregroundBlur_203_4992"/>
</filter>
<filter id="filter3_f_203_4992" x="638.301" y="1.99658" width="1101.23" height="1101.23" filterUnits="userSpaceOnUse" color-interpolation-filters="sRGB">
<feFlood flood-opacity="0" result="BackgroundImageFix"/>
<feBlend mode="normal" in="SourceGraphic" in2="BackgroundImageFix" result="shape"/>
<feGaussianBlur stdDeviation="163" result="effect1_foregroundBlur_203_4992"/>
</filter>
<filter id="filter4_f_203_4992" x="667.072" y="123.512" width="610.63" height="610.63" filterUnits="userSpaceOnUse" color-interpolation-filters="sRGB">
<feFlood flood-opacity="0" result="BackgroundImageFix"/>
<feBlend mode="normal" in="SourceGraphic" in2="BackgroundImageFix" result="shape"/>
<feGaussianBlur stdDeviation="100" result="effect1_foregroundBlur_203_4992"/>
</filter>
<filter id="filter5_f_203_4992" x="667.072" y="123.512" width="610.63" height="610.63" filterUnits="userSpaceOnUse" color-interpolation-filters="sRGB">
<feFlood flood-opacity="0" result="BackgroundImageFix"/>
<feBlend mode="normal" in="SourceGraphic" in2="BackgroundImageFix" result="shape"/>
<feGaussianBlur stdDeviation="100" result="effect1_foregroundBlur_203_4992"/>
</filter>
<linearGradient id="paint0_linear_203_4992" x1="180" y1="69.2929" x2="976.637" y2="1050.47" gradientUnits="userSpaceOnUse">
<stop stop-color="#CCFDF3"/>
<stop offset="1" stop-color="#FFDBD4"/>
</linearGradient>
<linearGradient id="paint1_linear_203_4992" x1="1155.3" y1="327.207" x2="1009.8" y2="513.818" gradientUnits="userSpaceOnUse">
<stop stop-color="#CFDEEC"/>
<stop offset="1" stop-color="#B0C2D5" stop-opacity="0"/>
</linearGradient>
</defs>
</svg>
