<svg width="89" height="88" viewBox="0 0 89 88" fill="none" xmlns="http://www.w3.org/2000/svg">
<circle cx="44.5" cy="44" r="44" fill="#F8B7B8"/>
<path d="M39.125 38.625H50.125" stroke="#865959" stroke-width="2" stroke-linecap="round" stroke-linejoin="round"/>
<path d="M39.125 44.125H50.125" stroke="#865959" stroke-width="2" stroke-linecap="round" stroke-linejoin="round"/>
<path d="M39.125 49.625H44.625" stroke="#865959" stroke-width="2" stroke-linecap="round" stroke-linejoin="round"/>
<path d="M49.5578 59.25H30.875C30.5103 59.25 30.1606 59.1051 29.9027 58.8473C29.6449 58.5894 29.5 58.2397 29.5 57.875V30.375C29.5 30.0103 29.6449 29.6606 29.9027 29.4027C30.1606 29.1449 30.5103 29 30.875 29H58.375C58.7397 29 59.0894 29.1449 59.3473 29.4027C59.6051 29.6606 59.75 30.0103 59.75 30.375V49.0578C59.7506 49.2364 59.716 49.4133 59.6482 49.5784C59.5804 49.7436 59.4806 49.8937 59.3547 50.0203L50.5203 58.8547C50.3937 58.9806 50.2436 59.0804 50.0784 59.1482C49.9133 59.216 49.7364 59.2506 49.5578 59.25V59.25Z" stroke="#865959" stroke-width="2" stroke-linecap="round" stroke-linejoin="round"/>
<path d="M59.6297 49.625H50.125V59.1297" stroke="#865959" stroke-width="2" stroke-linecap="round" stroke-linejoin="round"/>
</svg>
